<svg xmlns="http://www.w3.org/2000/svg" viewBox="0 0 800 520" fill="none" role="img" aria-label="NovaMath ?????">
  <rect width="800" height="520" rx="12" fill="#ffffff"/>
  <!-- toolbar -->
  <rect x="24" y="24" width="752" height="48" rx="8" fill="#f5f5f5"/>
  <rect x="40" y="40" width="80" height="16" rx="4" fill="#111111" opacity="0.85"/>
  <rect x="140" y="40" width="56" height="16" rx="4" fill="#e5e7eb"/>
  <rect x="210" y="40" width="56" height="16" rx="4" fill="#e5e7eb"/>
  <rect x="680" y="36" width="72" height="24" rx="6" fill="#111111"/>
  <text x="716" y="52" text-anchor="middle" fill="#ffffff" font-family="system-ui,sans-serif" font-size="11" font-weight="600">??</text>
  <!-- sidebar -->
  <rect x="24" y="88" width="180" height="408" rx="8" fill="#f8f9fa"/>
  <rect x="40" y="108" width="148" height="32" rx="6" fill="#111111"/>
  <text x="52" y="128" fill="#ffffff" font-family="system-ui,sans-serif" font-size="12" font-weight="500">?? LaTeX</text>
  <rect x="40" y="152" width="148" height="24" rx="4" fill="#e5e7eb"/>
  <rect x="40" y="184" width="148" height="24" rx="4" fill="#e5e7eb"/>
  <rect x="40" y="216" width="148" height="24" rx="4" fill="#e5e7eb"/>
  <!-- editor -->
  <rect x="220" y="88" width="556" height="408" rx="8" fill="#f8f9fa" stroke="#e5e7eb"/>
  <rect x="236" y="104" width="524" height="40" rx="6" fill="#ffffff" stroke="#e5e7eb"/>
  <text x="248" y="129" fill="#6b7280" font-family="ui-monospace,monospace" font-size="13">\int_0^{\infty} e^{-x^2}\,dx = \frac{\sqrt{\pi}}{2}</text>
  <!-- preview -->
  <rect x="236" y="160" width="524" height="320" rx="8" fill="#ffffff" stroke="#e5e7eb"/>
  <text x="498" y="300" text-anchor="middle" fill="#111111" font-family="Georgia,serif" font-size="42">??^? e^(?x˛) dx = ??/2</text>
  <text x="498" y="340" text-anchor="middle" fill="#6b7280" font-family="system-ui,sans-serif" font-size="13">??????</text>
  <!-- badge -->
  <rect x="620" y="172" width="88" height="26" rx="13" fill="#f5f5f5" stroke="#e5e7eb"/>
  <text x="664" y="189" text-anchor="middle" fill="#374151" font-family="system-ui,sans-serif" font-size="11" font-weight="500">????</text>
</svg>
