<svg width="1600" height="1000" viewBox="0 0 1600 1000" fill="none" xmlns="http://www.w3.org/2000/svg">
  <defs>
    <linearGradient id="bg" x1="0" y1="0" x2="1600" y2="1000" gradientUnits="userSpaceOnUse">
      <stop stop-color="#0F172A" />
      <stop offset="1" stop-color="#1E293B" />
    </linearGradient>
    <linearGradient id="line" x1="0" y1="0" x2="1" y2="1">
      <stop stop-color="#38BDF8" stop-opacity="0.7" />
      <stop offset="1" stop-color="#A78BFA" stop-opacity="0.5" />
    </linearGradient>
  </defs>
  <rect width="1600" height="1000" fill="url(#bg)" />
  <circle cx="1360" cy="180" r="200" fill="#38BDF8" fill-opacity="0.15" />
  <circle cx="260" cy="860" r="180" fill="#A78BFA" fill-opacity="0.15" />
  <g opacity="0.55" stroke="url(#line)" stroke-width="2">
    <path d="M120 760L440 500L730 620L1050 360L1440 520" />
    <path d="M120 700L430 450L750 560L1030 320L1440 470" />
    <path d="M160 820L450 560L710 680L1060 420L1420 580" />
  </g>
  <g opacity="0.9">
    <rect x="180" y="180" width="460" height="220" rx="14" fill="#0B1220" stroke="#334155" />
    <rect x="210" y="220" width="180" height="16" rx="8" fill="#64748B" />
    <rect x="210" y="258" width="380" height="12" rx="6" fill="#475569" />
    <rect x="210" y="286" width="330" height="12" rx="6" fill="#475569" />
    <rect x="210" y="328" width="130" height="34" rx="8" fill="#0EA5E9" />
    <rect x="360" y="328" width="130" height="34" rx="8" fill="#1E293B" stroke="#475569" />
  </g>
  <text x="180" y="940" fill="#94A3B8" font-size="34" font-family="Inter, Arial, sans-serif">
    Replace: /public/media/hero-placeholder.svg
  </text>
</svg>
